# This file uses centimeters as units for non-parametric coordinates.

mtllib Tria_Sign.mtl
g default
v -0.208431 3.893827 -1.365338
v -0.208431 4.007993 -1.365338
v -0.192285 3.893827 -1.365338
v -0.192285 4.007993 -1.365338
v -0.228419 4.007993 -1.134103
v -0.228419 3.893827 -1.134103
v -0.217225 4.007993 -1.123784
v -0.217225 3.893827 -1.123784
v -0.209773 4.007993 -1.156719
v -0.192285 3.893827 -1.156719
v -0.209773 3.893827 -1.156719
v -0.192285 4.007993 -1.156719
v -0.295463 4.007993 -1.067255
v -0.283332 3.893827 -1.067255
v -0.295463 3.893827 -1.067255
v -0.283332 4.007993 -1.067255
v -0.287173 4.007993 -1.112599
v -0.277433 3.893827 -1.102047
v -0.287173 3.893827 -1.112599
v -0.277433 4.007993 -1.102047
v -0.208431 3.893827 -0.769169
v -0.208431 4.007993 -0.769169
v -0.192285 3.893827 -0.769169
v -0.192285 4.007993 -0.769169
v -0.228419 4.007993 -1.000404
v -0.228419 3.893827 -1.000404
v -0.217225 4.007993 -1.010725
v -0.217225 3.893827 -1.010725
v -0.209773 4.007993 -0.977789
v -0.192285 3.893827 -0.977789
v -0.209773 3.893827 -0.977789
v -0.192285 4.007993 -0.977789
v -0.287173 4.007993 -1.021909
v -0.277433 3.893827 -1.032461
v -0.287173 3.893827 -1.021909
v -0.277433 4.007993 -1.032461
v -0.233602 -0.141611 -1.117254
v -0.233602 4.240170 -1.117254
v -0.223848 -0.141611 -1.116293
v -0.223848 4.240170 -1.116293
v -0.214468 -0.141611 -1.113448
v -0.214468 4.240170 -1.113448
v -0.205824 -0.141611 -1.108828
v -0.205824 4.240170 -1.108828
v -0.198247 -0.141611 -1.102609
v -0.198247 4.240170 -1.102609
v -0.192029 -0.141611 -1.095032
v -0.192029 4.240170 -1.095032
v -0.187408 -0.141611 -1.086389
v -0.187408 4.240170 -1.086389
v -0.184563 -0.141611 -1.077008
v -0.184563 4.240170 -1.077008
v -0.183602 -0.141611 -1.067255
v -0.183602 4.240170 -1.067255
v -0.184563 -0.141611 -1.057499
v -0.184563 4.240170 -1.057499
v -0.187408 -0.141611 -1.048120
v -0.187408 4.240170 -1.048120
v -0.192029 -0.141611 -1.039475
v -0.192029 4.240170 -1.039475
v -0.198247 -0.141611 -1.031898
v -0.198247 4.240170 -1.031898
v -0.205824 -0.141611 -1.025681
v -0.205824 4.240170 -1.025681
v -0.214468 -0.141611 -1.021060
v -0.214468 4.240170 -1.021060
v -0.223848 -0.141611 -1.018214
v -0.223848 4.240170 -1.018214
v -0.233602 -0.141611 -1.017254
v -0.233602 4.240170 -1.017254
v -0.243357 -0.141611 -1.018214
v -0.243357 4.240170 -1.018214
v -0.252737 -0.141611 -1.021060
v -0.252737 4.240170 -1.021060
v -0.261381 -0.141611 -1.025681
v -0.261381 4.240170 -1.025681
v -0.268958 -0.141611 -1.031898
v -0.268958 4.240170 -1.031898
v -0.275176 -0.141611 -1.039475
v -0.275176 4.240170 -1.039475
v -0.279796 -0.141611 -1.048120
v -0.279796 4.240170 -1.048120
v -0.282642 -0.141611 -1.057499
v -0.282642 4.240170 -1.057499
v -0.283602 -0.141611 -1.067255
v -0.283602 4.240170 -1.067255
v -0.282642 -0.141611 -1.077008
v -0.282642 4.240170 -1.077008
v -0.279796 -0.141611 -1.086389
v -0.279796 4.240170 -1.086389
v -0.275176 -0.141611 -1.095032
v -0.275176 4.240170 -1.095032
v -0.268958 -0.141611 -1.102609
v -0.268958 4.240170 -1.102609
v -0.261381 -0.141611 -1.108828
v -0.261381 4.240170 -1.108828
v -0.252736 -0.141611 -1.113448
v -0.252736 4.240170 -1.113448
v -0.243357 -0.141611 -1.116293
v -0.243357 4.240170 -1.116293
v -0.192485 3.067699 -1.067254
v -0.192485 4.468433 -0.202671
v -0.192485 4.468432 -1.931839
v -0.171639 4.468432 -1.931839
v -0.171639 4.468433 -0.202671
v -0.171639 3.067699 -1.067254
vt 0.916261 0.399049
vt 0.916261 0.294739
vt 0.943002 0.294739
vt 0.943002 0.399049
vt 0.907975 0.298620
vt 0.916261 0.298620
vt 0.916261 0.299239
vt 0.907975 0.299239
vt 0.907287 0.403520
vt 0.916261 0.403520
vt 0.969209 0.191600
vt 0.969209 0.294739
vt 0.960924 0.294739
vt 0.960235 0.191600
vt 0.925514 0.164571
vt 0.956411 0.175317
vt 0.950667 0.180420
vt 0.920516 0.169788
vt 0.867567 0.425574
vt 0.897718 0.414824
vt 0.903463 0.419983
vt 0.872566 0.430848
vt 0.314902 0.789203
vt 0.331803 0.789203
vt 0.331803 0.815257
vt 0.314902 0.815257
vt 0.916261 0.421109
vt 0.916261 0.410357
vt 0.943002 0.410357
vt 0.943002 0.421109
vt 0.181782 0.851332
vt 0.181782 0.833935
vt 0.208523 0.833935
vt 0.208523 0.851332
vt 0.235118 0.819320
vt 0.235118 0.789203
vt 0.261713 0.790124
vt 0.261713 0.820241
vt 0.916261 0.443782
vt 0.943002 0.443782
vt 0.863313 0.448240
vt 0.869538 0.448240
vt 0.922486 0.147370
vt 0.916261 0.147370
vt 0.053482 0.893512
vt 0.026741 0.893513
vt 0.026741 0.789203
vt 0.053482 0.789203
vt 0.356991 0.815132
vt 0.356991 0.789203
vt 0.365276 0.789203
vt 0.365276 0.815131
vt 0.907287 0.492959
vt 0.916261 0.492959
vt 0.916261 0.597240
vt 0.907975 0.597240
vt 0.969209 0.103139
vt 0.960235 0.103139
vt 0.960924 0.000000
vt 0.969209 0.000000
vt 0.925514 0.130169
vt 0.920516 0.124952
vt 0.950667 0.114320
vt 0.956411 0.119422
vt 0.867567 0.470905
vt 0.872566 0.465631
vt 0.903463 0.476496
vt 0.897718 0.481655
vt 0.181782 0.789203
vt 0.208523 0.789203
vt 0.208523 0.805671
vt 0.181782 0.805671
vt 0.314902 0.818605
vt 0.288307 0.819536
vt 0.288307 0.790134
vt 0.314902 0.789203
vt 0.053482 0.904820
vt 0.026741 0.904820
vt 0.181782 0.816539
vt 0.208523 0.816539
vt 0.943002 0.466454
vt 0.916261 0.466454
vt 0.827026 0.000000
vt 0.827026 1.000000
vt 0.826533 1.000000
vt 0.826533 0.000000
vt 0.825073 1.000000
vt 0.825073 0.000000
vt 0.822702 1.000000
vt 0.822702 0.000000
vt 0.819511 1.000000
vt 0.819511 0.000000
vt 0.815623 1.000000
vt 0.815623 0.000000
vt 0.811186 1.000000
vt 0.811186 0.000000
vt 0.806373 1.000000
vt 0.806373 0.000000
vt 0.801367 1.000000
vt 0.801367 0.000000
vt 0.796362 1.000000
vt 0.796362 0.000000
vt 0.791548 1.000000
vt 0.791548 0.000000
vt 0.787112 1.000000
vt 0.787112 0.000000
vt 0.783224 1.000000
vt 0.783224 0.000000
vt 0.827026 0.995875
vt 0.827026 0.000721
vt 0.830912 0.000415
vt 0.830913 0.995569
vt 0.835347 0.000188
vt 0.835347 0.995341
vt 0.840160 0.000047
vt 0.840160 0.995201
vt 0.845165 0.000000
vt 0.845165 0.995154
vt 0.850171 0.000047
vt 0.850172 0.995201
vt 0.854986 0.000187
vt 0.854986 0.995340
vt 0.859423 0.000413
vt 0.859423 0.995567
vt 0.863313 0.000719
vt 0.863313 0.995873
vt 0.739422 1.000000
vt 0.739422 0.000000
vt 0.743310 0.000000
vt 0.743310 1.000000
vt 0.747746 0.000000
vt 0.747746 1.000000
vt 0.752559 0.000000
vt 0.752559 1.000000
vt 0.757565 0.000000
vt 0.757565 1.000000
vt 0.762571 0.000000
vt 0.762571 1.000000
vt 0.767384 0.000000
vt 0.767384 1.000000
vt 0.771820 0.000000
vt 0.771820 1.000000
vt 0.775708 0.000000
vt 0.775709 1.000000
vt 0.778899 0.000000
vt 0.778900 1.000000
vt 0.781271 0.000000
vt 0.781271 1.000000
vt 0.104539 0.816589
vt 0.104539 0.811689
vt 0.105509 0.806881
vt 0.107412 0.802349
vt 0.110176 0.798269
vt 0.113693 0.794796
vt 0.117829 0.792065
vt 0.122424 0.790180
vt 0.127303 0.789213
vt 0.132277 0.789203
vt 0.137155 0.790148
vt 0.141751 0.792014
vt 0.145887 0.794727
vt 0.149404 0.798185
vt 0.152167 0.802253
vt 0.154071 0.806777
vt 0.155041 0.811581
vt 0.155041 0.816481
vt 0.154071 0.821289
vt 0.152167 0.825821
vt 0.149404 0.829901
vt 0.145886 0.833374
vt 0.141751 0.836105
vt 0.137155 0.837990
vt 0.132277 0.838957
vt 0.127303 0.838967
vt 0.122424 0.838022
vt 0.117829 0.836156
vt 0.113693 0.833443
vt 0.110176 0.829985
vt 0.107412 0.825917
vt 0.105509 0.821393
vt 0.782731 1.000000
vt 0.782731 0.000000
vt 0.783224 0.000000
vt 0.783224 1.000000
vt 0.053483 0.816533
vt 0.053482 0.811632
vt 0.054463 0.806825
vt 0.056387 0.802297
vt 0.059181 0.798223
vt 0.062736 0.794757
vt 0.066917 0.792034
vt 0.071563 0.790159
vt 0.076495 0.789203
vt 0.081523 0.789203
vt 0.086455 0.790159
vt 0.091101 0.792034
vt 0.095282 0.794757
vt 0.098838 0.798223
vt 0.101632 0.802297
vt 0.103557 0.806825
vt 0.104538 0.811632
vt 0.104539 0.816533
vt 0.103558 0.821339
vt 0.101634 0.825867
vt 0.098840 0.829942
vt 0.095285 0.833408
vt 0.091104 0.836130
vt 0.086458 0.838006
vt 0.081526 0.838962
vt 0.076498 0.838962
vt 0.071566 0.838006
vt 0.066920 0.836130
vt 0.062738 0.833408
vt 0.059182 0.829942
vt 0.056388 0.825867
vt 0.054464 0.821339
vt 0.986309 0.987893
vt 0.986309 0.987893
vt 0.993426 0.987893
vt 0.993426 0.987893
vt 0.986309 0.509614
vt 0.993426 0.987893
vt 0.993426 0.509614
vt 0.986309 0.987893
vt 0.231549 0.417943
vt 0.483703 0.009422
vt 0.735857 0.417943
vt 0.009646 0.674001
vt 0.382715 0.674001
vt 0.196180 0.371792
vn -0.999980 0.000000 -0.006400
vn -0.999980 0.000000 -0.006400
vn -0.999980 0.000000 -0.006400
vn -0.999980 0.000000 -0.006400
vn 0.000000 0.000000 -1.000000
vn 0.000000 0.000000 -1.000000
vn 0.000000 0.000000 -1.000000
vn 0.000000 0.000000 -1.000000
vn 0.000000 -1.000000 0.000000
vn 0.000000 -1.000000 0.000000
vn 0.000000 -1.000000 0.000000
vn 0.000000 -1.000000 0.000000
vn 0.000000 1.000000 0.000000
vn 0.000000 1.000000 0.000000
vn 0.000000 1.000000 0.000000
vn 0.000000 1.000000 0.000000
vn 0.000000 1.000000 0.000000
vn 0.000000 1.000000 0.000000
vn 0.000000 1.000000 0.000000
vn 0.000000 1.000000 0.000000
vn 0.000000 -1.000000 0.000000
vn 0.000000 -1.000000 0.000000
vn 0.000000 -1.000000 0.000000
vn 0.000000 -1.000000 0.000000
vn 0.797207 0.000000 0.603706
vn 0.797207 0.000000 0.603706
vn 0.797207 0.000000 0.603706
vn 0.797207 0.000000 0.603706
vn -0.343693 0.000000 -0.939082
vn -0.343693 0.000000 -0.939082
vn -0.343693 0.000000 -0.939082
vn -0.343693 0.000000 -0.939082
vn 0.000000 1.000000 0.000000
vn 0.000000 1.000000 0.000000
vn 0.000000 1.000000 0.000000
vn 0.000000 1.000000 0.000000
vn 0.000000 -1.000000 0.000000
vn 0.000000 -1.000000 0.000000
vn 0.000000 -1.000000 0.000000
vn 0.000000 -1.000000 0.000000
vn -0.771604 0.000000 -0.636103
vn -0.771604 0.000000 -0.636103
vn -0.771604 0.000000 -0.636103
vn -0.771604 0.000000 -0.636103
vn 0.985922 0.000000 0.167204
vn 0.985922 0.000000 0.167204
vn 0.985922 0.000000 0.167204
vn 0.985922 0.000000 0.167204
vn 0.339590 0.000000 0.940574
vn 0.339590 0.000000 0.940574
vn 0.339590 0.000000 0.940574
vn 0.339590 0.000000 0.940574
vn -0.983703 0.000000 -0.179801
vn -0.983703 0.000000 -0.179801
vn -0.983703 0.000000 -0.179801
vn -0.983703 0.000000 -0.179801
vn 0.000000 -1.000000 0.000000
vn 0.000000 -1.000000 0.000000
vn 0.000000 -1.000000 0.000000
vn 0.000000 -1.000000 0.000000
vn 0.000000 1.000000 0.000000
vn 0.000000 1.000000 0.000000
vn 0.000000 1.000000 0.000000
vn 0.000000 1.000000 0.000000
vn -0.999980 0.000000 0.006400
vn -0.999980 0.000000 0.006400
vn -0.999980 0.000000 0.006400
vn -0.999980 0.000000 0.006400
vn 0.000000 0.000000 1.000000
vn 0.000000 0.000000 1.000000
vn 0.000000 0.000000 1.000000
vn 0.000000 0.000000 1.000000
vn 0.000000 -1.000000 0.000000
vn 0.000000 -1.000000 0.000000
vn 0.000000 -1.000000 0.000000
vn 0.000000 -1.000000 0.000000
vn 0.000000 1.000000 0.000000
vn 0.000000 1.000000 0.000000
vn 0.000000 1.000000 0.000000
vn 0.000000 1.000000 0.000000
vn 0.000000 1.000000 0.000000
vn 0.000000 1.000000 0.000000
vn 0.000000 1.000000 0.000000
vn 0.000000 1.000000 0.000000
vn 0.000000 -1.000000 0.000000
vn 0.000000 -1.000000 0.000000
vn 0.000000 -1.000000 0.000000
vn 0.000000 -1.000000 0.000000
vn 0.797207 0.000000 -0.603706
vn 0.797207 0.000000 -0.603706
vn 0.797207 0.000000 -0.603706
vn 0.797207 0.000000 -0.603706
vn -0.343693 0.000000 0.939082
vn -0.343693 0.000000 0.939082
vn -0.343693 0.000000 0.939082
vn -0.343693 0.000000 0.939082
vn 0.000000 1.000000 0.000000
vn 0.000000 1.000000 0.000000
vn 0.000000 1.000000 0.000000
vn 0.000000 1.000000 0.000000
vn 0.000000 -1.000000 0.000000
vn 0.000000 -1.000000 0.000000
vn 0.000000 -1.000000 0.000000
vn 0.000000 -1.000000 0.000000
vn -0.771604 0.000000 0.636103
vn -0.771604 0.000000 0.636103
vn -0.771604 0.000000 0.636103
vn -0.771604 0.000000 0.636103
vn 0.985922 0.000000 -0.167204
vn 0.985922 0.000000 -0.167204
vn 0.985922 0.000000 -0.167204
vn 0.985922 0.000000 -0.167204
vn 0.339590 0.000000 -0.940574
vn 0.339590 0.000000 -0.940574
vn 0.339590 0.000000 -0.940574
vn 0.339590 0.000000 -0.940574
vn 0.000000 1.000000 0.000000
vn 0.000000 1.000000 0.000000
vn 0.000000 1.000000 0.000000
vn 0.000000 1.000000 0.000000
vn 0.000000 -1.000000 0.000000
vn 0.000000 -1.000000 0.000000
vn 0.000000 -1.000000 0.000000
vn 0.000000 -1.000000 0.000000
vn -0.983703 0.000000 0.179801
vn -0.983703 0.000000 0.179801
vn -0.983703 0.000000 0.179801
vn -0.983703 0.000000 0.179801
vn 0.098098 0.000000 -0.995177
vn 0.098098 0.000000 -0.995177
vn 0.098098 0.000000 -0.995177
vn 0.098098 0.000000 -0.995177
vn 0.290310 0.000000 -0.956933
vn 0.290310 0.000000 -0.956933
vn 0.290310 0.000000 -0.956933
vn 0.290310 0.000000 -0.956933
vn 0.471408 0.000000 -0.881915
vn 0.471408 0.000000 -0.881915
vn 0.471408 0.000000 -0.881915
vn 0.471408 0.000000 -0.881915
vn 0.634402 0.000000 -0.773003
vn 0.634402 0.000000 -0.773003
vn 0.634402 0.000000 -0.773003
vn 0.634402 0.000000 -0.773003
vn 0.773003 0.000000 -0.634402
vn 0.773003 0.000000 -0.634402
vn 0.773003 0.000000 -0.634402
vn 0.773003 0.000000 -0.634402
vn 0.881915 0.000000 -0.471408
vn 0.881915 0.000000 -0.471408
vn 0.881915 0.000000 -0.471408
vn 0.881915 0.000000 -0.471408
vn 0.956933 0.000000 -0.290310
vn 0.956933 0.000000 -0.290310
vn 0.956933 0.000000 -0.290310
vn 0.956933 0.000000 -0.290310
vn 0.995187 0.000000 -0.097999
vn 0.995187 0.000000 -0.097999
vn 0.995187 0.000000 -0.097999
vn 0.995187 0.000000 -0.097999
vn 0.995187 0.000000 0.097999
vn 0.995187 0.000000 0.097999
vn 0.995187 0.000000 0.097999
vn 0.995187 0.000000 0.097999
vn 0.956933 0.000000 0.290310
vn 0.956933 0.000000 0.290310
vn 0.956933 0.000000 0.290310
vn 0.956933 0.000000 0.290310
vn 0.881915 0.000000 0.471408
vn 0.881915 0.000000 0.471408
vn 0.881915 0.000000 0.471408
vn 0.881915 0.000000 0.471408
vn 0.773003 0.000000 0.634402
vn 0.773003 0.000000 0.634402
vn 0.773003 0.000000 0.634402
vn 0.773003 0.000000 0.634402
vn 0.634402 0.000000 0.773003
vn 0.634402 0.000000 0.773003
vn 0.634402 0.000000 0.773003
vn 0.634402 0.000000 0.773003
vn 0.471408 0.000000 0.881915
vn 0.471408 0.000000 0.881915
vn 0.471408 0.000000 0.881915
vn 0.471408 0.000000 0.881915
vn 0.290310 0.000000 0.956933
vn 0.290310 0.000000 0.956933
vn 0.290310 0.000000 0.956933
vn 0.290310 0.000000 0.956933
vn 0.097999 0.000000 0.995187
vn 0.097999 0.000000 0.995187
vn 0.097999 0.000000 0.995187
vn 0.097999 0.000000 0.995187
vn -0.097999 0.000000 0.995187
vn -0.097999 0.000000 0.995187
vn -0.097999 0.000000 0.995187
vn -0.097999 0.000000 0.995187
vn -0.290310 0.000000 0.956933
vn -0.290310 0.000000 0.956933
vn -0.290310 0.000000 0.956933
vn -0.290310 0.000000 0.956933
vn -0.471408 0.000000 0.881915
vn -0.471408 0.000000 0.881915
vn -0.471408 0.000000 0.881915
vn -0.471408 0.000000 0.881915
vn -0.634402 0.000000 0.773003
vn -0.634402 0.000000 0.773003
vn -0.634402 0.000000 0.773003
vn -0.634402 0.000000 0.773003
vn -0.773003 0.000000 0.634402
vn -0.773003 0.000000 0.634402
vn -0.773003 0.000000 0.634402
vn -0.773003 0.000000 0.634402
vn -0.881915 0.000000 0.471408
vn -0.881915 0.000000 0.471408
vn -0.881915 0.000000 0.471408
vn -0.881915 0.000000 0.471408
vn -0.956933 0.000000 0.290310
vn -0.956933 0.000000 0.290310
vn -0.956933 0.000000 0.290310
vn -0.956933 0.000000 0.290310
vn -0.995187 0.000000 0.097999
vn -0.995187 0.000000 0.097999
vn -0.995187 0.000000 0.097999
vn -0.995187 0.000000 0.097999
vn -0.995187 0.000000 -0.097999
vn -0.995187 0.000000 -0.097999
vn -0.995187 0.000000 -0.097999
vn -0.995187 0.000000 -0.097999
vn -0.956933 0.000000 -0.290310
vn -0.956933 0.000000 -0.290310
vn -0.956933 0.000000 -0.290310
vn -0.956933 0.000000 -0.290310
vn -0.881915 0.000000 -0.471408
vn -0.881915 0.000000 -0.471408
vn -0.881915 0.000000 -0.471408
vn -0.881915 0.000000 -0.471408
vn -0.773003 0.000000 -0.634402
vn -0.773003 0.000000 -0.634402
vn -0.773003 0.000000 -0.634402
vn -0.773003 0.000000 -0.634402
vn -0.634402 0.000000 -0.773003
vn -0.634402 0.000000 -0.773003
vn -0.634402 0.000000 -0.773003
vn -0.634402 0.000000 -0.773003
vn -0.471408 0.000000 -0.881915
vn -0.471408 0.000000 -0.881915
vn -0.471408 0.000000 -0.881915
vn -0.471408 0.000000 -0.881915
vn 0.000000 1.000000 0.000000
vn 0.000000 1.000000 0.000000
vn 0.000000 1.000000 0.000000
vn 0.000000 1.000000 0.000000
vn 0.000000 1.000000 0.000000
vn 0.000000 1.000000 0.000000
vn 0.000000 1.000000 0.000000
vn 0.000000 1.000000 0.000000
vn 0.000000 1.000000 0.000000
vn 0.000000 1.000000 0.000000
vn 0.000000 1.000000 0.000000
vn 0.000000 1.000000 0.000000
vn 0.000000 1.000000 0.000000
vn 0.000000 1.000000 0.000000
vn 0.000000 1.000000 0.000000
vn 0.000000 1.000000 0.000000
vn 0.000000 1.000000 0.000000
vn 0.000000 1.000000 0.000000
vn 0.000000 1.000000 0.000000
vn 0.000000 1.000000 0.000000
vn 0.000000 1.000000 0.000000
vn 0.000000 1.000000 0.000000
vn 0.000000 1.000000 0.000000
vn 0.000000 1.000000 0.000000
vn 0.000000 1.000000 0.000000
vn 0.000000 1.000000 0.000000
vn 0.000000 1.000000 0.000000
vn 0.000000 1.000000 0.000000
vn 0.000000 1.000000 0.000000
vn 0.000000 1.000000 0.000000
vn 0.000000 1.000000 0.000000
vn 0.000000 1.000000 0.000000
vn -0.098098 0.000000 -0.995177
vn -0.098098 0.000000 -0.995177
vn -0.098098 0.000000 -0.995177
vn -0.098098 0.000000 -0.995177
vn -0.290310 0.000000 -0.956933
vn -0.290310 0.000000 -0.956933
vn -0.290310 0.000000 -0.956933
vn -0.290310 0.000000 -0.956933
vn 0.000000 -1.000000 0.000000
vn 0.000000 -1.000000 0.000000
vn 0.000000 -1.000000 0.000000
vn 0.000000 -1.000000 0.000000
vn 0.000000 -1.000000 0.000000
vn 0.000000 -1.000000 0.000000
vn 0.000000 -1.000000 0.000000
vn 0.000000 -1.000000 0.000000
vn 0.000000 -1.000000 0.000000
vn 0.000000 -1.000000 0.000000
vn 0.000000 -1.000000 0.000000
vn 0.000000 -1.000000 0.000000
vn 0.000000 -1.000000 0.000000
vn 0.000000 -1.000000 0.000000
vn 0.000000 -1.000000 0.000000
vn 0.000000 -1.000000 0.000000
vn 0.000000 -1.000000 0.000000
vn 0.000000 -1.000000 0.000000
vn 0.000000 -1.000000 0.000000
vn 0.000000 -1.000000 0.000000
vn 0.000000 -1.000000 0.000000
vn 0.000000 -1.000000 0.000000
vn 0.000000 -1.000000 0.000000
vn 0.000000 -1.000000 0.000000
vn 0.000000 -1.000000 0.000000
vn 0.000000 -1.000000 0.000000
vn 0.000000 -1.000000 0.000000
vn 0.000000 -1.000000 0.000000
vn 0.000000 -1.000000 0.000000
vn 0.000000 -1.000000 0.000000
vn 0.000000 -1.000000 0.000000
vn 0.000000 -1.000000 0.000000
vn 0.000000 1.000000 0.000000
vn 0.000000 1.000000 0.000000
vn 0.000000 1.000000 0.000000
vn 0.000000 1.000000 0.000000
vn 0.000000 -0.525191 -0.850985
vn 0.000000 -0.525191 -0.850985
vn 0.000000 -0.525191 -0.850985
vn 0.000000 -0.525191 -0.850985
vn 0.000000 -0.525191 0.850985
vn 0.000000 -0.525191 0.850985
vn 0.000000 -0.525191 0.850985
vn 0.000000 -0.525191 0.850985
vn 1.000000 0.000000 0.000000
vn 1.000000 0.000000 0.000000
vn 1.000000 0.000000 0.000000
vn -1.000000 0.000000 0.000000
vn -1.000000 0.000000 0.000000
vn -1.000000 0.000000 0.000000
s off
g polySurface5
usemtl blinn2SG
f 9/1/1 2/2/2 1/3/3 11/4/4
f 2/5/5 4/6/6 3/7/7 1/8/8
f 11/9/9 1/8/10 3/7/11 10/10/12
f 12/11/13 4/12/14 2/13/15 9/14/16
f 20/15/17 7/16/18 5/17/19 17/18/20
f 19/19/21 6/20/22 8/21/23 18/22/24
f 12/23/25 7/24/26 8/25/27 10/26/28
f 17/27/29 5/28/30 6/29/31 19/30/32
f 7/16/33 12/11/34 9/14/35 5/17/36
f 6/20/37 11/9/38 10/10/39 8/21/40
f 5/28/41 9/1/42 11/4/43 6/29/44
f 20/31/45 16/32/46 14/33/47 18/34/48
f 7/35/49 20/36/50 18/37/51 8/38/52
f 13/39/53 17/27/54 19/30/55 15/40/56
f 15/41/57 19/19/58 18/22/59 14/42/60
f 16/43/61 20/15/62 17/18/63 13/44/64
f 29/45/65 31/46/66 21/47/67 22/48/68
f 22/49/69 21/50/70 23/51/71 24/52/72
f 31/53/73 30/54/74 23/55/75 21/56/76
f 32/57/77 29/58/78 22/59/79 24/60/80
f 36/61/81 33/62/82 25/63/83 27/64/84
f 35/65/85 34/66/86 28/67/87 26/68/88
f 32/69/89 30/70/90 28/71/91 27/72/92
f 33/73/93 35/74/94 26/75/95 25/76/96
f 27/64/97 25/63/98 29/58/99 32/57/100
f 26/68/101 28/67/102 30/54/103 31/53/104
f 25/77/105 26/78/106 31/46/107 29/45/108
f 36/79/109 34/80/110 14/33/111 16/32/112
f 27/72/113 28/71/114 34/80/115 36/79/116
f 16/43/117 13/44/118 33/62/119 36/61/120
f 15/41/121 14/42/122 34/66/123 35/65/124
f 13/39/125 15/40/126 35/81/127 33/82/128
f 37/83/129 38/84/130 40/85/131 39/86/132
f 39/86/133 40/85/134 42/87/135 41/88/136
f 41/88/137 42/87/138 44/89/139 43/90/140
f 43/90/141 44/89/142 46/91/143 45/92/144
f 45/92/145 46/91/146 48/93/147 47/94/148
f 47/94/149 48/93/150 50/95/151 49/96/152
f 49/96/153 50/95/154 52/97/155 51/98/156
f 51/98/157 52/97/158 54/99/159 53/100/160
f 53/100/161 54/99/162 56/101/163 55/102/164
f 55/102/165 56/101/166 58/103/167 57/104/168
f 57/104/169 58/103/170 60/105/171 59/106/172
f 59/106/173 60/105/174 62/107/175 61/108/176
f 61/109/177 62/110/178 64/111/179 63/112/180
f 63/112/181 64/111/182 66/113/183 65/114/184
f 65/114/185 66/113/186 68/115/187 67/116/188
f 67/116/189 68/115/190 70/117/191 69/118/192
f 69/118/193 70/117/194 72/119/195 71/120/196
f 71/120/197 72/119/198 74/121/199 73/122/200
f 73/122/201 74/121/202 76/123/203 75/124/204
f 75/124/205 76/123/206 78/125/207 77/126/208
f 77/127/209 78/128/210 80/129/211 79/130/212
f 79/130/213 80/129/214 82/131/215 81/132/216
f 81/132/217 82/131/218 84/133/219 83/134/220
f 83/134/221 84/133/222 86/135/223 85/136/224
f 85/136/225 86/135/226 88/137/227 87/138/228
f 87/138/229 88/137/230 90/139/231 89/140/232
f 89/140/233 90/139/234 92/141/235 91/142/236
f 91/142/237 92/141/238 94/143/239 93/144/240
f 93/144/241 94/143/242 96/145/243 95/146/244
f 95/146/245 96/145/246 98/147/247 97/148/248
f 40/149/249 38/150/250 100/151/251 98/152/252 96/153/253 94/154/254 92/155/255 90/156/256 88/157/257 86/158/258 84/159/259 82/160/260 80/161/261 78/162/262 76/163/263 74/164/264 72/165/265 70/166/266 68/167/267 66/168/268 64/169/269 62/170/270 60/171/271 58/172/272 56/173/273 54/174/274 52/175/275 50/176/276 48/177/277 46/178/278 44/179/279 42/180/280
f 99/181/281 100/182/282 38/183/283 37/184/284
f 97/148/285 98/147/286 100/182/287 99/181/288
f 37/185/289 39/186/290 41/187/291 43/188/292 45/189/293 47/190/294 49/191/295 51/192/296 53/193/297 55/194/298 57/195/299 59/196/300 61/197/301 63/198/302 65/199/303 67/200/304 69/201/305 71/202/306 73/203/307 75/204/308 77/205/309 79/206/310 81/207/311 83/208/312 85/209/313 87/210/314 89/211/315 91/212/316 93/213/317 95/214/318 97/215/319 99/216/320
f 103/217/321 102/218/322 105/219/323 104/220/324
f 101/221/325 103/217/326 104/222/327 106/223/328
f 102/224/329 101/221/330 106/223/331 105/219/332
f 105/225/333 106/226/334 104/227/335
f 102/228/336 103/229/337 101/230/338
