# Blender v2.92.0 OBJ File: 'garage_only_v3_autosave.blend'
# www.blender.org
mtllib grinder.mtl
g Grinder_Cube.002
v -0.300522 0.370181 0.422013
v -0.282802 1.185557 0.404854
v -0.309319 0.370181 -0.414634
v -0.292403 0.828356 -0.432919
v 0.328880 0.370181 0.415395
v 0.310803 1.185557 0.398613
v 0.320083 0.370181 -0.421252
v 0.302786 0.828356 -0.439177
v -0.313952 0.432750 0.440261
v 0.342691 0.432750 0.433357
v -0.291242 1.185557 -0.397852
v 0.302363 1.185557 -0.404094
v -0.323130 0.432750 -0.432596
v 0.333513 0.432750 -0.439500
v -0.277632 0.833390 -0.258510
v 0.291686 0.833390 -0.264496
v -0.313952 1.185557 0.440261
v -0.323130 1.185557 -0.432596
v 0.333513 1.185557 -0.439500
v 0.342691 1.185557 0.433357
v -0.292403 0.619475 -0.432919
v -0.323130 0.619475 -0.432596
v 0.333513 0.619475 -0.439500
v 0.302786 0.619475 -0.439177
v -0.313952 0.619475 0.440261
v 0.342691 0.619475 0.433357
v -0.323130 0.370181 -0.432596
v -0.313952 0.370181 0.440261
v 0.333513 0.370181 -0.439500
v 0.342691 0.370181 0.433357
v -0.309319 -0.010029 -0.414635
v -0.300522 -0.010029 0.422013
v 0.320083 -0.010029 -0.421252
v 0.328880 -0.010029 0.415395
vt 0.879387 0.883406
vt 0.716166 0.883406
vt 0.716166 0.631718
vt 0.879387 0.631718
vt 0.879386 0.442375
vt 0.716167 0.442375
vt 0.716167 0.190688
vt 0.879387 0.190688
vt 0.716167 0.001346
vt 0.879387 0.001346
vt 0.347018 0.727396
vt 0.365059 0.727396
vt 0.365059 0.916739
vt 0.347018 0.916739
vt 0.347019 0.475709
vt 0.365060 0.475709
vt 0.430793 0.467946
vt 0.430793 0.450422
vt 0.614710 0.450422
vt 0.614710 0.467946
vt 0.493471 0.923822
vt 0.475430 0.923822
vt 0.475430 0.672134
vt 0.493470 0.672134
vt 0.819160 0.451235
vt 0.819160 0.622858
vt 0.681855 0.827032
vt 0.681855 0.998654
vt 0.631504 0.994924
vt 0.631504 0.830762
vt 0.707078 0.873292
vt 0.707078 0.641832
vt 0.706053 0.622630
vt 0.706053 0.451464
vt 0.707078 0.432261
vt 0.707078 0.200802
vt 0.706053 0.181600
vt 0.706053 0.010435
vt 0.418898 0.727396
vt 0.418899 0.916739
vt 0.418899 0.475709
vt 0.421591 0.923822
vt 0.421591 0.672134
vt 0.882079 0.424080
vt 0.882079 0.182834
vt 0.991706 0.182834
vt 0.991706 0.424080
vt 0.497397 0.677354
vt 0.497398 0.918601
vt 0.610895 0.473017
vt 0.434608 0.473017
vt 0.343092 0.722176
vt 0.343092 0.480930
vt 0.341798 0.912811
vt 0.341798 0.731324
vt 0.882079 0.846814
vt 0.882079 0.605568
vt 0.991706 0.605568
vt 0.991706 0.846814
vt 0.882079 0.001346
vt 0.991706 0.001346
vt 0.879386 0.451235
vt 0.879387 0.622858
vn -0.9999 0.0000 0.0105
vn 0.9999 -0.0000 -0.0105
vn 0.0105 -0.0000 0.9999
vn -0.0105 0.0000 -0.9999
vn 0.0003 -0.9996 0.0288
vn 0.0000 1.0000 0.0000
vn 0.0000 -1.0000 -0.0000
usemtl grinder
s off
f 25/1/1 17/2/1 18/3/1 22/4/1
f 23/5/2 19/6/2 20/7/2 26/8/2
f 26/8/3 20/7/3 17/9/3 25/10/3
f 30/11/3 10/12/3 9/13/3 28/14/3
f 29/15/2 14/16/2 10/12/2 30/11/2
f 27/17/4 13/18/4 14/19/4 29/20/4
f 28/21/1 9/22/1 13/23/1 27/24/1
f 8/25/4 4/26/4 18/3/4 19/6/4
f 4/27/5 8/28/5 16/29/5 15/30/5
f 2/31/6 11/32/6 18/3/6 17/2/6
f 11/33/6 12/34/6 19/6/6 18/3/6
f 12/35/6 6/36/6 20/7/6 19/6/6
f 6/37/6 2/38/6 17/9/6 20/7/6
f 10/12/3 26/39/3 25/40/3 9/13/3
f 14/16/2 23/41/2 26/39/2 10/12/2
f 9/22/1 25/42/1 22/43/1 13/23/1
f 7/44/2 5/45/2 34/46/2 33/47/2
f 3/48/7 1/49/7 28/21/7 27/24/7
f 7/50/7 3/51/7 27/17/7 29/20/7
f 5/52/7 7/53/7 29/15/7 30/11/7
f 1/54/7 5/55/7 30/11/7 28/14/7
f 1/56/1 3/57/1 31/58/1 32/59/1
f 5/45/3 1/60/3 32/61/3 34/46/3
f 3/57/4 7/44/4 33/47/4 31/58/4
f 19/6/4 23/5/4 24/62/4 8/25/4
f 4/26/4 21/63/4 22/4/4 18/3/4
g Grinder.001_Cube.003
v -0.282802 1.185557 0.404854
v 0.310803 1.185557 0.398613
v -0.291242 1.185557 -0.397852
v 0.302363 1.185557 -0.404094
v -0.307595 1.679505 0.431624
v -0.316593 1.679505 -0.424094
v 0.327156 1.679505 -0.430863
v 0.336154 1.679505 0.424855
v -0.333416 1.679505 0.466709
v -0.343146 1.679505 -0.458629
v 0.352978 1.679505 -0.465948
v 0.362707 1.679505 0.459390
v -0.237618 1.185557 0.336540
v -0.244632 1.185557 -0.330503
v 0.257179 1.185557 -0.335780
v 0.264193 1.185557 0.331264
v -0.292403 0.828356 -0.432919
v 0.302786 0.828356 -0.439177
v -0.292403 0.473596 -0.432919
v 0.302786 0.473596 -0.439177
v -0.323130 0.432750 -0.432596
v 0.333513 0.432750 -0.439500
v -0.277632 0.833390 -0.258510
v 0.291686 0.833390 -0.264496
v -0.254460 0.696875 0.200951
v 0.278180 0.696875 0.195350
v -0.324656 0.391071 -0.577803
v 0.331986 0.391071 -0.584707
v -0.293930 0.402131 -0.578126
v 0.301259 0.402131 -0.584384
v -0.292403 0.619475 -0.432919
v -0.323130 0.619475 -0.432596
v 0.333513 0.619475 -0.439500
v 0.302786 0.619475 -0.439177
v -0.293930 0.493206 -0.578126
v -0.324656 0.493206 -0.577803
v 0.331986 0.493206 -0.584707
v 0.301259 0.493206 -0.584384
v -0.252938 0.839909 0.345781
v 0.279703 0.839909 0.340180
v -0.237618 1.185557 0.336540
v -0.244632 1.185557 -0.330503
v 0.257179 1.185557 -0.335780
v 0.264193 1.185557 0.331264
vt 0.332722 0.394985
vt 0.339106 0.580792
vt 0.194723 0.578199
vt 0.201159 0.399695
vt 0.153573 0.009896
vt 0.181713 0.180271
vt 0.043980 0.203176
vt 0.015519 0.058682
vt 0.315573 0.172460
vt 0.186946 0.178710
vt 0.339106 0.844789
vt 0.177357 0.864248
vt 0.308713 0.009653
vt 0.171614 0.001346
vt 0.159922 0.847338
vt 0.191503 0.579483
vt 0.194422 0.401631
vt 0.037935 0.570112
vt 0.049750 0.403240
vt 0.001346 0.789010
vt 0.608820 0.355136
vt 0.436586 0.355494
vt 0.444937 0.160704
vt 0.599214 0.160440
vt 0.398146 0.339822
vt 0.341798 0.317673
vt 0.359000 0.269922
vt 0.421502 0.106129
vt 0.647366 0.339003
vt 0.621906 0.106140
vt 0.436487 0.402065
vt 0.609056 0.401999
vt 0.614710 0.408109
vt 0.430793 0.408110
vt 0.614710 0.450422
vt 0.430793 0.450422
vt 0.630501 0.389748
vt 0.389978 0.342971
vt 0.415329 0.389772
vt 0.409698 0.394122
vt 0.655741 0.341946
vt 0.636270 0.394330
vt 0.396079 0.419834
vt 0.365080 0.389978
vt 0.681896 0.389509
vt 0.650728 0.420727
vt 0.703361 0.316390
vt 0.685761 0.268924
vt 0.599113 0.101483
vt 0.444836 0.101747
vt 0.603711 0.836296
vt 0.500090 0.826563
vt 0.500090 0.681867
vt 0.603711 0.672134
vt 0.523855 0.669442
vt 0.424070 0.668035
vt 0.421590 0.475709
vt 0.523855 0.495049
vt 0.449129 0.001595
vt 0.594476 0.001346
vt 0.526547 0.669442
vt 0.529027 0.477116
vt 0.628812 0.475709
vt 0.628812 0.650102
vn -0.0104 -0.1232 -0.9923
vn -0.0103 0.1876 -0.9822
vn 0.9946 -0.1032 -0.0105
vn -0.9946 -0.1032 0.0105
vn 0.0104 -0.1232 0.9923
vn 0.0000 1.0000 0.0000
vn 0.0103 0.1876 0.9822
vn -0.9898 0.1422 0.0104
vn 0.9898 0.1422 -0.0104
vn -0.0035 0.9433 -0.3320
vn 0.9983 -0.0280 -0.0502
vn -0.9988 0.0263 -0.0419
vn -0.0105 -0.0000 -0.9999
vn 0.0029 -0.9612 0.2759
vn -0.9999 0.0000 0.0105
vn -0.0046 0.8972 -0.4415
vn -0.0069 0.7546 -0.6561
vn 0.9999 0.0000 -0.0105
vn -0.9992 -0.0280 -0.0292
vn 0.9977 0.0263 -0.0629
vn -0.0074 0.7115 -0.7026
vn 0.0103 0.1993 0.9799
vn -0.9974 -0.0719 -0.0035
vn -0.0105 -0.0263 -0.9996
vn 0.9971 -0.0719 -0.0245
usemtl grinder
s off
f 38/64/8 37/65/8 44/66/8 45/67/8
f 39/68/9 42/69/9 50/70/9 47/71/9
f 36/72/10 38/64/10 45/67/10 46/73/10
f 37/65/11 35/74/11 43/75/11 44/66/11
f 35/76/12 36/72/12 46/73/12 43/77/12
f 39/78/13 40/79/13 44/66/13 43/75/13
f 40/79/13 41/80/13 45/67/13 44/66/13
f 41/80/13 42/69/13 46/73/13 45/67/13
f 42/69/13 39/68/13 43/77/13 46/73/13
f 41/80/14 40/79/14 48/81/14 49/82/14
f 42/69/15 41/80/15 49/82/15 50/70/15
f 40/79/16 39/78/16 47/83/16 48/81/16
f 54/84/17 53/85/17 59/86/17 60/87/17
f 65/88/18 51/89/18 57/90/18 73/91/18
f 68/92/19 54/84/19 60/87/19 74/93/19
f 63/94/20 64/95/20 62/96/20 61/97/20
f 56/98/21 55/99/21 61/97/21 62/96/21
f 64/95/22 54/84/22 68/92/22 72/100/22
f 53/85/23 54/84/23 64/95/23 63/94/23
f 66/101/24 65/88/24 69/102/24 70/103/24
f 68/92/24 67/104/24 71/105/24 72/100/24
f 61/106/22 55/107/22 66/101/22 70/103/22
f 62/96/20 64/95/20 72/100/20 71/105/20
f 56/108/25 62/109/25 71/105/25 67/104/25
f 53/85/25 63/94/25 69/102/25 65/88/25
f 63/94/20 61/97/20 70/103/20 69/102/20
f 52/110/26 68/92/26 74/93/26 58/111/26
f 53/85/27 65/88/27 73/91/27 59/86/27
f 74/112/28 60/87/28 59/86/28 73/113/28
f 58/114/29 77/115/29 76/116/29 57/117/29
f 74/118/30 78/119/30 77/120/30 58/121/30
f 73/113/31 75/122/31 78/123/31 74/112/31
f 76/124/32 75/125/32 73/126/32 57/127/32
g Grinder.002_Cube.004
v 0.319179 1.151253 0.183165
v 0.432429 1.151253 0.181974
v 0.318400 1.136510 0.109051
v 0.431650 1.136510 0.107860
v 0.317739 1.094526 0.046220
v 0.430989 1.094526 0.045029
v 0.317298 1.031691 0.004238
v 0.430548 1.031691 0.003047
v 0.317143 0.957573 -0.010504
v 0.430393 0.957573 -0.011695
v 0.317298 0.883455 0.004238
v 0.430548 0.883455 0.003047
v 0.317739 0.820621 0.046220
v 0.430989 0.820621 0.045029
v 0.318400 0.778636 0.109051
v 0.431650 0.778636 0.107860
v 0.319179 0.763893 0.183165
v 0.432429 0.763893 0.181974
v 0.319958 0.778636 0.257279
v 0.433209 0.778636 0.256088
v 0.320619 0.820621 0.320110
v 0.433869 0.820621 0.318919
v 0.321061 0.883455 0.362092
v 0.434311 0.883455 0.360901
v 0.321216 0.957573 0.376834
v 0.434466 0.957573 0.375644
v 0.321061 1.031692 0.362092
v 0.434311 1.031692 0.360901
v 0.320619 1.094526 0.320110
v 0.433869 1.094526 0.318919
v 0.319958 1.136510 0.257279
v 0.433209 1.136510 0.256088
vt 0.631504 0.715393
vt 0.631504 0.693603
vt 0.664159 0.693603
vt 0.664159 0.715393
vt 0.631504 0.671814
vt 0.664159 0.671814
vt 0.631504 0.650024
vt 0.664159 0.650024
vt 0.631504 0.628235
vt 0.664159 0.628235
vt 0.631504 0.606446
vt 0.664159 0.606446
vt 0.631504 0.584656
vt 0.664159 0.584656
vt 0.631504 0.562867
vt 0.664159 0.562867
vt 0.631504 0.541077
vt 0.664159 0.541077
vt 0.631504 0.519288
vt 0.664159 0.519288
vt 0.631504 0.497498
vt 0.664159 0.497498
vt 0.631504 0.475709
vt 0.664160 0.475709
vt 0.631504 0.824340
vt 0.631504 0.802550
vt 0.664159 0.802550
vt 0.664159 0.824340
vt 0.631504 0.780761
vt 0.664159 0.780761
vt 0.631504 0.758971
vt 0.664159 0.758971
vt 0.631504 0.737182
vt 0.664159 0.737182
vt 0.609632 0.904654
vt 0.601294 0.924785
vt 0.565756 0.948531
vt 0.543966 0.948531
vt 0.585887 0.940192
vt 0.609632 0.882865
vt 0.523836 0.940192
vt 0.601294 0.862734
vt 0.508428 0.924785
vt 0.585887 0.847327
vt 0.500090 0.904654
vt 0.565756 0.838988
vt 0.500090 0.882865
vt 0.543966 0.838988
vt 0.508428 0.862734
vt 0.523836 0.847327
vn -0.0058 0.8315 -0.5555
vn -0.0087 0.5556 -0.8314
vn -0.0103 0.1951 -0.9807
vn -0.0103 -0.1951 -0.9807
vn -0.0087 -0.5556 -0.8314
vn -0.0058 -0.8315 -0.5555
vn -0.0021 -0.9808 -0.1951
vn 0.0021 -0.9808 0.1951
vn 0.0058 -0.8315 0.5555
vn 0.0087 -0.5556 0.8314
vn 0.0103 -0.1951 0.9807
vn 0.0103 0.1951 0.9807
vn 0.0087 0.5556 0.8314
vn 0.0058 0.8315 0.5555
vn 0.0021 0.9808 0.1951
vn 0.9999 0.0000 -0.0105
vn -0.0021 0.9808 -0.1951
usemtl grinder
s off
f 82/128/33 84/129/33 83/130/33 81/131/33
f 84/129/34 86/132/34 85/133/34 83/130/34
f 86/132/35 88/134/35 87/135/35 85/133/35
f 88/134/36 90/136/36 89/137/36 87/135/36
f 90/136/37 92/138/37 91/139/37 89/137/37
f 92/138/38 94/140/38 93/141/38 91/139/38
f 94/140/39 96/142/39 95/143/39 93/141/39
f 96/142/40 98/144/40 97/145/40 95/143/40
f 98/144/41 100/146/41 99/147/41 97/145/41
f 100/146/42 102/148/42 101/149/42 99/147/42
f 102/148/43 104/150/43 103/151/43 101/149/43
f 104/152/44 106/153/44 105/154/44 103/155/44
f 106/153/45 108/156/45 107/157/45 105/154/45
f 108/156/46 110/158/46 109/159/46 107/157/46
f 110/158/47 80/160/47 79/161/47 109/159/47
f 100/162/48 98/163/48 94/164/48 92/165/48
f 96/166/48 94/164/48 98/163/48
f 80/160/49 82/128/49 81/131/49 79/161/49
f 102/167/48 100/162/48 92/165/48 90/168/48
f 104/169/48 102/167/48 90/168/48 88/170/48
f 106/171/48 104/169/48 88/170/48 86/172/48
f 108/173/48 106/171/48 86/172/48 84/174/48
f 110/175/48 108/173/48 84/174/48 82/176/48
f 110/175/48 82/176/48 80/177/48
